<?xml version="1.0" ?><svg enable-background="new 0 0 231.999 210.7372" id="swift" version="1.1" viewBox="0 0 231.999 210.7372" xml:space="preserve" xmlns="http://www.w3.org/2000/svg" xmlns:xlink="http://www.w3.org/1999/xlink"><path d="M215.1397,148.7996c15.4216-47.8612-12.0472-109.7012-66.1367-148.0624c-1.5665-1.1096-3.7073-0.9552-5.0901,0.3864  c-1.3868,1.336-1.6212,3.4668-0.5664,5.0744c23.3788,35.5508,29.3868,71.5684,16.8205,99.6408  C122.7097,80.54,54.9637,21.4832,54.2569,20.868c-1.5-1.3164-3.7499-1.3164-5.2579,0c-1.508,1.3144-1.8125,3.5388-0.7149,5.2108  c1.0549,1.6016,19.9844,30.3184,40.3672,55.2872C73.9561,70.87,57.7373,57.5828,28.8897,33.4636  c-1.5-1.2576-3.6916-1.2384-5.176,0.0372c-1.4844,1.2772-1.824,3.4412-0.8048,5.1132  c28.5784,46.9064,76.1448,90.4044,99.5901,110.3456C68.4597,173.1708,6.835,133.3308,6.1981,132.9128  c-1.5936-1.0428-3.6876-0.828-5.0271,0.5116c-1.34,1.34-1.5549,3.4416-0.5157,5.0276  c11.7852,17.9215,27.9844,31.242,48.6797,45.7304c27.5467,19.2892,54.9607,26.5548,78.3047,26.5548  c24.1288,0,43.906-7.7656,54.9724-18.0508c0.0469-0.0588,5.004-5.176,15.9844-1.9612c8.754,2.5588,20.8124,12.1956,25.0312,16.5472  c1.0156,1.0468,2.5353,1.4608,3.9416,1.07c1.41-0.3944,2.496-1.5272,2.828-2.9529c1.0624-4.5899,1.6017-9.3243,1.6017-14.0663  C231.999,175.3504,226.0301,160.3464,215.1397,148.7996z M223.7409,196.616c-6.0936-5.0312-15.1012-11.2892-22.9019-13.5705  c-15.9573-4.6523-23.8637,3.9417-23.9337,4.0469c-19.5392,18.1368-70.6172,27.2032-122.9844-9.4648  c-13.6056-9.5232-25.168-18.488-34.664-28.5781c6.7461,3.16,15.156,6.6017,24.7028,9.4765  c32.6876,9.836,63.004,8.0588,87.6916-5.1525c1.172-0.6287,1.9568-1.7967,2.0936-3.1207c0.1328-1.3244-0.3984-2.6292-1.4216-3.4804  c-17.4883-14.5629-56.7268-49.084-86.6408-88.9356c29.1288,24.0232,42.6756,33.9744,64.164,46.8692  c1.7424,1.0448,3.9885,0.6188,5.2304-0.9904c1.2384-1.6112,1.0704-3.8924-0.3828-5.3088  c-13.7576-13.3653-30.0116-34.574-42.086-51.3104c24.75,20.8984,63.2736,52.584,86.9808,67.9531  c0.9412,0.6133,2.1092,0.7929,3.1872,0.5157c1.086-0.2852,2.004-1.0157,2.5276-2.008c13.9024-26.4197,12.074-59.6132-4.6172-93.2672  c41.1052,36.8944,60.3085,88.3024,46.1052,128.2164c-0.5232,1.4688-0.1444,3.1056,0.9728,4.1996  c10.4688,10.25,16.2345,23.9648,16.2345,38.6172C223.999,193.0924,223.9129,194.858,223.7409,196.616z"/></svg>