<?xml version="1.0" encoding="iso-8859-1"?>
<!-- Generator: Adobe Illustrator 19.0.0, SVG Export Plug-In . SVG Version: 6.00 Build 0)  -->
<svg version="1.1" id="Layer_1" xmlns="http://www.w3.org/2000/svg" xmlns:xlink="http://www.w3.org/1999/xlink" x="0px" y="0px"
	 viewBox="0 0 512 512" style="enable-background:new 0 0 512 512;" xml:space="preserve">
<polygon style="fill:#00B4D7;" points="504.082,7.918 504.082,187.381 440.426,123.725 308.572,256 440.426,388.275 
	504.082,324.619 504.082,504.082 324.619,504.082 388.275,440.426 256.106,308.678 123.725,440.426 187.381,504.082 7.918,504.082 
	7.918,324.619 71.574,388.275 203.322,256 71.574,123.725 7.918,187.381 7.918,7.918 187.381,7.918 123.725,71.574 256.106,203.322 
	388.275,71.574 324.619,7.918 "/>
<polygon style="fill:#0093C4;" points="388.275,71.574 256.106,203.322 234.887,182.103 123.725,71.574 187.381,7.918 7.918,7.918 
	7.918,187.381 71.574,123.725 182.103,234.887 203.322,256 71.574,388.275 7.918,324.619 7.918,504.082 504.082,7.918 
	324.619,7.918 "/>
<g>
	<rect x="398.515" y="31.67" style="fill:#FFFFFF;" width="73.897" height="15.835"/>
	<rect x="31.67" y="34.309" style="fill:#FFFFFF;" width="15.835" height="79.175"/>
	<rect x="464.495" y="409.072" style="fill:#FFFFFF;" width="15.835" height="68.619"/>
</g>
<path d="M512,512H305.505l71.565-71.566L256.115,319.866L134.938,440.441L206.495,512H0V305.505l71.558,71.559L192.097,256
	L71.558,134.938L0,206.495V0h206.495l-71.558,71.559l121.176,120.575L377.068,71.566L305.505,0H512v206.495l-71.565-71.565
	L319.752,256l120.683,121.07L512,305.505V512z M343.733,496.165h152.432V343.733l-55.749,55.749L297.393,256l143.023-143.481
	l55.749,55.749V15.835H343.733l55.749,55.748L256.096,214.51L112.511,71.59l55.756-55.755H15.835v152.432l55.755-55.755L214.546,256
	L71.59,399.488l-55.755-55.755v152.432h152.432l-55.755-55.755l143.585-142.92l143.385,142.927L343.733,496.165z"/>
<rect x="39.588" y="464.495" style="fill:#FFFFFF;" width="73.897" height="15.835"/>
<g>
</g>
<g>
</g>
<g>
</g>
<g>
</g>
<g>
</g>
<g>
</g>
<g>
</g>
<g>
</g>
<g>
</g>
<g>
</g>
<g>
</g>
<g>
</g>
<g>
</g>
<g>
</g>
<g>
</g>
</svg>
